<?xml version="1.0" standalone="no"?>
<!DOCTYPE svg PUBLIC "-//W3C//DTD SVG 20010904//EN"
 "http://www.w3.org/TR/2001/REC-SVG-20010904/DTD/svg10.dtd">
<svg version="1.0" xmlns="http://www.w3.org/2000/svg"
 width="157.000000pt" height="109.000000pt" viewBox="0 0 157.000000 109.000000"
 preserveAspectRatio="xMidYMid meet">

<g transform="translate(0.000000,109.000000) scale(0.100000,-0.100000)"
fill="#000000" stroke="none">
<path d="M503 933 c-44 -9 -102 -98 -78 -121 4 -4 43 -9 87 -11 60 -2 83 0 89
10 6 10 9 11 9 2 0 -24 25 -13 26 12 1 14 -3 25 -10 25 -6 0 -4 5 4 10 9 6 11
10 3 10 -7 0 -10 7 -7 15 7 17 56 20 85 5 10 -6 20 -21 20 -33 1 -19 2 -20 6
-3 3 11 11 25 18 33 21 20 29 -16 9 -38 -10 -11 -12 -19 -6 -19 7 0 12 -4 12
-8 0 -5 -16 -8 -35 -8 -35 1 -46 10 -22 19 6 3 3 6 -9 6 -11 1 -25 6 -32 13
-8 8 -12 9 -12 1 0 -6 5 -13 11 -15 8 -3 6 -9 -4 -20 -15 -15 -6 -16 118 -17
99 -1 135 2 135 10 0 7 3 9 6 6 12 -11 44 13 44 33 0 11 7 20 15 20 8 0 15 5
15 11 0 5 5 7 11 3 6 -3 15 0 20 7 6 10 9 11 9 2 0 -17 18 -16 35 1 8 7 36 17
62 22 l48 8 -75 7 c-131 11 -225 10 -239 -3 -11 -10 -13 -10 -7 0 4 7 1 12 -9
12 -8 0 -20 -10 -25 -22 -5 -13 -9 -17 -9 -10 -1 8 -9 10 -26 6 -16 -4 -25 -2
-25 6 0 6 5 8 12 4 7 -4 8 -3 4 4 -4 7 -14 12 -22 12 -8 0 -13 -4 -10 -9 3 -5
-1 -12 -10 -15 -23 -9 -54 -7 -54 3 0 5 8 7 19 4 10 -3 21 -1 24 4 3 4 -13 9
-34 11 -28 2 -41 -2 -45 -13 -4 -8 -11 -15 -16 -15 -6 0 -7 7 -4 16 5 14 4 15
-9 4 -10 -8 -15 -9 -15 -1 0 11 -60 13 -107 4z m106 -28 c5 2 6 -6 4 -20 -3
-15 -10 -22 -19 -18 -8 3 -14 0 -14 -5 0 -6 6 -12 13 -15 6 -2 4 -3 -5 -2 -10
2 -23 -4 -30 -13 -10 -12 -10 -14 0 -8 6 4 12 2 12 -3 0 -6 -10 -11 -21 -11
-17 0 -20 4 -15 23 3 12 6 28 6 36 0 7 6 11 13 8 17 -7 44 9 34 20 -5 4 -12 1
-17 -7 -6 -8 -10 -11 -10 -6 0 5 8 17 18 26 13 13 18 14 20 3 2 -7 7 -11 11
-8z m318 -71 c-3 -3 -12 -4 -19 -1 -8 3 -5 6 6 6 11 1 17 -2 13 -5z"/>
<path d="M688 873 c7 -3 16 -2 19 1 4 3 -2 6 -13 5 -11 0 -14 -3 -6 -6z"/>
<path d="M147 823 c-4 -3 -7 -19 -7 -35 0 -35 53 -96 130 -148 30 -21 64 -47
74 -59 11 -11 23 -21 28 -21 9 0 11 213 2 248 -6 21 -11 22 -113 22 -59 0
-111 -3 -114 -7z"/>
<path d="M990 814 c0 -8 5 -12 10 -9 6 4 8 11 5 16 -9 14 -15 11 -15 -7z"/>
<path d="M1473 823 c-18 -7 -16 -23 2 -23 8 0 15 -7 15 -15 0 -8 3 -15 6 -15
3 0 12 7 20 15 14 13 14 15 -1 15 -9 0 -13 5 -10 11 4 6 14 8 22 5 8 -3 11 -1
8 4 -6 10 -41 12 -62 3z"/>
<path d="M1465 770 c3 -5 8 -10 11 -10 2 0 4 5 4 10 0 6 -5 10 -11 10 -5 0 -7
-4 -4 -10z"/>
<path d="M627 762 l-78 -3 3 -27 c2 -22 8 -27 28 -25 14 1 91 3 172 4 91 1
145 6 142 11 -4 6 4 5 16 -2 25 -13 27 -12 32 15 3 18 -3 20 -52 22 -34 1 -57
-2 -62 -10 -6 -9 -8 -9 -8 1 0 6 -9 12 -20 12 -14 0 -18 -5 -13 -17 5 -15 3
-14 -10 2 -14 17 -18 18 -27 5 -5 -8 -10 -10 -10 -4 0 16 -23 19 -113 16z
m-40 -37 c0 -8 -6 -15 -12 -15 -6 0 -12 7 -12 15 0 8 6 15 12 15 6 0 12 -7 12
-15z"/>
<path d="M420 544 l0 -216 28 -28 c31 -30 86 -44 157 -38 29 2 39 7 37 18 -2
8 -4 20 -5 25 -1 6 -15 19 -30 29 -24 16 -30 17 -38 5 -5 -8 -9 -17 -9 -21 0
-13 28 -9 34 5 3 6 4 3 3 -7 -1 -10 4 -21 12 -24 9 -3 11 0 6 8 -5 8 -4 11 3
6 12 -7 5 -36 -9 -36 -4 0 -19 10 -34 23 -22 19 -24 26 -16 54 8 27 6 34 -11
45 -18 12 -19 17 -9 34 10 15 11 16 7 2 -3 -12 0 -18 9 -18 13 0 20 -19 16
-43 -1 -5 3 -6 8 -3 5 4 12 0 15 -6 3 -7 3 -2 -1 12 -4 14 -6 45 -6 69 1 24
-3 38 -7 31 -6 -10 -9 -9 -14 1 -3 8 -4 4 -2 -7 3 -17 -1 -20 -16 -16 -13 3
-17 10 -13 23 4 11 3 19 -2 19 -4 0 -6 23 -5 50 4 50 4 51 -21 45 -18 -5 -31
-1 -46 14 -17 17 -21 33 -21 91 0 40 -4 70 -10 70 -6 0 -10 -79 -10 -216z"/>
<path d="M1503 738 c-2 -16 1 -18 10 -9 7 7 8 14 1 21 -6 6 -10 2 -11 -12z"/>
<path d="M490 740 c0 -5 5 -10 10 -10 6 0 10 5 10 10 0 6 -4 10 -10 10 -5 0
-10 -4 -10 -10z"/>
<path d="M957 743 c-10 -9 -9 -23 1 -23 5 0 9 7 9 15 0 17 -1 18 -10 8z"/>
<path d="M986 725 c4 -8 10 -15 15 -15 5 0 9 7 9 15 0 8 -7 15 -15 15 -9 0
-12 -6 -9 -15z"/>
<path d="M555 680 c3 -5 8 -10 11 -10 2 0 4 5 4 10 0 6 -5 10 -11 10 -5 0 -7
-4 -4 -10z"/>
<path d="M572 665 c-10 -21 -9 -25 3 -25 9 0 15 10 15 25 0 14 -2 25 -3 25 -2
0 -9 -11 -15 -25z"/>
<path d="M1326 662 c-3 -5 1 -15 9 -22 16 -14 20 -3 6 19 -5 8 -11 9 -15 3z"/>
<path d="M480 635 c0 -8 7 -15 15 -15 8 0 15 7 15 15 0 8 -7 15 -15 15 -8 0
-15 -7 -15 -15z"/>
<path d="M568 623 c7 -3 16 -2 19 1 4 3 -2 6 -13 5 -11 0 -14 -3 -6 -6z"/>
<path d="M757 612 c-19 -21 -24 -102 -6 -102 5 0 7 -5 4 -10 -4 -6 -11 -8 -16
-5 -5 4 -5 -3 -1 -15 5 -12 20 -29 35 -38 25 -15 28 -15 54 4 25 18 28 28 30
80 1 39 -1 52 -6 39 -5 -11 -7 -23 -5 -26 2 -3 -7 -11 -20 -17 -57 -26 -106
56 -54 92 12 9 18 16 12 16 -6 0 -18 -8 -27 -18z m93 -102 c0 -5 -2 -10 -4
-10 -3 0 -8 5 -11 10 -3 6 -1 10 4 10 6 0 11 -4 11 -10z"/>
<path d="M801 627 c2 -1 14 -11 27 -21 12 -11 22 -16 22 -13 0 10 -31 37 -42
37 -6 0 -9 -1 -7 -3z"/>
<path d="M960 610 c-28 -28 -29 -129 -2 -153 10 -10 24 -17 30 -17 16 0 15 27
0 33 -10 4 -10 6 0 6 19 1 14 28 -7 43 -52 37 -21 112 37 92 36 -13 43 -65 12
-87 -16 -11 -18 -16 -8 -21 10 -5 10 -7 0 -12 -17 -8 -5 -24 19 -24 11 0 17 5
14 10 -3 6 -2 10 3 10 16 0 4 101 -14 121 -22 25 -59 24 -84 -1z"/>
<path d="M1220 603 c0 -11 5 -11 20 -3 11 6 20 12 20 13 0 2 -9 3 -20 3 -11 0
-20 -6 -20 -13z"/>
<path d="M562 548 c2 -5 8 -9 13 -9 5 0 11 4 13 9 1 5 -4 9 -13 9 -9 0 -14 -4
-13 -9z"/>
<path d="M1220 515 c0 -3 5 -15 10 -26 7 -13 7 -19 0 -19 -5 0 -10 -16 -10
-35 0 -20 -7 -51 -15 -71 -21 -52 -60 -64 -205 -64 -117 0 -120 -1 -110 -20 9
-17 8 -19 -7 -13 -16 5 -16 4 0 -9 15 -11 19 -30 21 -87 1 -40 -2 -75 -6 -77
-4 -3 -8 -14 -8 -25 0 -16 5 -19 20 -14 12 4 20 2 20 -5 0 -7 27 -10 80 -8 58
1 76 5 63 12 -10 5 -21 14 -25 20 -4 6 -9 4 -14 -7 -7 -19 -29 -23 -39 -7 -4
6 -3 9 2 8 14 -5 50 26 50 43 0 12 -8 15 -29 13 -15 -2 -28 1 -28 7 0 6 5 7
10 4 6 -3 10 -1 10 4 0 15 -13 14 -28 -1 -10 -10 -8 -16 10 -30 16 -12 18 -18
8 -18 -17 0 -42 14 -41 24 3 23 0 30 -8 17 -6 -10 -10 -10 -16 -1 -4 6 -3 16
3 22 6 6 8 16 6 23 -3 7 0 16 7 21 9 5 10 2 6 -9 -3 -10 -2 -17 4 -17 6 0 10
10 9 23 -6 66 -7 65 83 66 66 0 85 4 97 18 16 19 33 23 45 11 12 -12 45 11 39
27 -4 8 -11 12 -17 8 -6 -3 -7 -1 -3 6 6 9 11 9 22 0 12 -10 13 -9 8 5 -4 9
-1 16 6 16 20 0 9 133 -13 154 -9 10 -17 15 -17 11z m-256 -240 c-7 -16 -24
-21 -24 -6 0 8 7 13 27 20 1 1 0 -6 -3 -14z m46 5 c-8 -5 -19 -10 -25 -10 -5
0 -3 5 5 10 8 5 20 10 25 10 6 0 3 -5 -5 -10z m90 0 c0 -5 -5 -10 -11 -10 -5
0 -7 5 -4 10 3 6 8 10 11 10 2 0 4 -4 4 -10z m-173 -32 c-3 -8 -6 -5 -6 6 -1
11 2 17 5 13 3 -3 4 -12 1 -19z m22 -19 c-22 -13 -31 -11 -17 5 7 8 17 12 22
9 4 -3 2 -9 -5 -14z m-19 -29 c0 -5 -5 -10 -11 -10 -5 0 -7 5 -4 10 3 6 8 10
11 10 2 0 4 -4 4 -10z m44 -125 c-4 -8 -10 -12 -15 -9 -5 3 -9 0 -9 -7 0 -7
-3 -9 -6 -6 -8 7 14 37 27 37 5 0 6 -7 3 -15z"/>
<path d="M1013 454 c0 -16 6 -17 25 -5 11 6 9 9 -5 13 -12 3 -20 0 -20 -8z"/>
<path d="M670 296 c0 -2 7 -6 15 -10 8 -3 15 -1 15 4 0 6 -7 10 -15 10 -8 0
-15 -2 -15 -4z"/>
<path d="M740 285 c0 -8 5 -15 11 -15 5 0 8 -4 4 -9 -3 -5 -1 -12 4 -16 6 -3
8 -12 5 -20 -3 -8 -2 -20 3 -27 5 -9 10 -2 13 22 4 31 9 35 38 38 20 2 32 9
32 18 0 8 5 12 10 9 6 -3 10 -1 10 4 0 6 -18 11 -40 11 -37 0 -46 -7 -41 -33
1 -5 -3 -6 -8 -2 -6 3 -8 12 -4 20 3 10 -2 15 -16 15 -12 0 -21 -6 -21 -15z
m85 -5 c3 -5 -1 -10 -9 -10 -9 0 -16 5 -16 10 0 6 4 10 9 10 6 0 13 -4 16 -10z"/>
<path d="M713 243 c1 -55 -4 -71 -23 -76 -13 -3 -18 -1 -13 6 4 6 0 8 -10 4
-9 -3 -17 -2 -19 2 -2 4 -15 11 -30 15 -25 6 -28 4 -28 -19 0 -27 17 -34 26
-10 7 18 25 20 22 3 -4 -19 -39 -30 -54 -17 -11 9 -14 8 -14 -2 0 -8 -6 -5
-14 7 -13 17 -12 20 7 31 19 11 15 12 -34 13 -121 0 -199 -47 -203 -123 l-1
-32 63 -3 c62 -3 62 -3 62 25 0 15 4 33 8 39 13 19 40 23 52 8 7 -8 18 -14 26
-14 7 0 16 -5 20 -12 4 -6 3 -8 -3 -5 -6 4 -16 0 -22 -7 -9 -11 -9 -16 0 -22
8 -5 9 -3 4 6 -6 10 -3 12 13 8 12 -4 20 -3 17 2 -3 4 6 10 20 12 15 3 26 0
29 -9 8 -21 7 -25 -3 -18 -5 3 -12 1 -16 -5 -4 -6 20 -10 69 -10 50 0 76 4 79
13 3 9 7 9 19 -1 13 -10 17 -10 22 4 4 12 2 15 -9 10 -8 -3 -15 0 -15 6 0 7
-7 5 -17 -5 -15 -12 -20 -13 -30 -2 -10 11 -5 16 22 30 22 10 35 23 35 35 0
24 -22 31 -38 11 -11 -14 -11 -13 -2 7 6 13 7 22 1 22 -5 0 -7 10 -3 22 l5 22
10 -21 c10 -23 37 -39 37 -23 0 6 -4 10 -10 10 -13 0 -42 58 -35 70 3 6 0 10
-8 10 -7 0 -14 -8 -14 -17z m-203 -96 c0 -8 -7 -14 -15 -14 -25 0 -17 17 13
26 1 1 2 -5 2 -12z m139 -18 c-25 -16 -32 -9 -13 12 12 13 20 16 22 9 3 -7 -2
-16 -9 -21z m-102 4 c0 -9 -4 -10 -14 -2 -7 6 -13 12 -13 14 0 1 6 2 13 2 8 0
14 -6 14 -14z m159 -31 c-4 -3 -14 2 -24 12 -16 18 -16 18 6 6 13 -6 21 -14
18 -18z m-31 -28 c-19 -20 -23 -18 -17 11 3 20 7 23 18 14 11 -9 11 -13 -1
-25z m-35 16 c0 -5 -2 -10 -4 -10 -3 0 -8 5 -11 10 -3 6 -1 10 4 10 6 0 11 -4
11 -10z"/>
<path d="M1045 190 c-4 -6 -11 -7 -17 -4 -7 4 -8 2 -4 -4 5 -9 13 -9 29 -1 31
16 33 19 14 19 -9 0 -19 -5 -22 -10z"/>
<path d="M1121 184 c7 -9 4 -14 -10 -19 -37 -11 -23 -31 18 -26 8 2 10 -2 5
-11 -6 -11 -5 -11 8 0 9 7 19 9 22 4 7 -12 66 -13 66 -1 0 6 5 7 10 4 6 -4 5
8 -3 27 -13 32 -16 33 -70 34 -44 0 -54 -2 -46 -12z m100 -1 c0 -5 2 -16 4
-25 2 -10 -2 -21 -8 -25 -7 -3 -9 -3 -5 1 4 5 3 19 -2 32 -6 15 -6 24 0 24 6
0 10 -3 11 -7z"/>
<path d="M1246 177 c3 -10 9 -15 12 -12 3 3 0 11 -7 18 -10 9 -11 8 -5 -6z"/>
<path d="M976 165 c-11 -8 -16 -15 -10 -15 5 0 18 7 28 15 11 8 16 15 10 15
-5 0 -18 -7 -28 -15z"/>
<path d="M1051 167 c-8 -11 -6 -13 11 -12 12 1 24 7 26 13 5 16 -23 15 -37 -1z"/>
<path d="M1277 169 c7 -7 15 -10 18 -7 3 3 -2 9 -12 12 -14 6 -15 5 -6 -5z"/>
<path d="M1021 144 c0 -11 3 -14 6 -6 3 7 2 16 -1 19 -3 4 -6 -2 -5 -13z"/>
<path d="M1306 134 c-3 -9 -3 -20 0 -26 3 -5 -1 -17 -10 -26 -14 -16 -12 -17
23 -17 28 0 37 3 34 13 -3 7 -12 11 -19 8 -8 -3 -11 0 -7 9 3 8 10 12 15 9 6
-4 5 2 -1 14 -15 29 -28 35 -35 16z"/>
<path d="M1150 88 c0 -4 9 -8 20 -8 11 0 20 4 20 8 0 4 -9 8 -20 8 -11 0 -20
-4 -20 -8z"/>
<path d="M1097 83 c-4 -3 -7 -11 -7 -17 0 -6 5 -5 12 2 6 6 9 14 7 17 -3 3 -9
2 -12 -2z"/>
</g>
</svg>
